<?xml version="1.0" encoding="UTF-8" standalone="no"?>
<!-- Created with Inkscape (http://www.inkscape.org/) -->

<svg
   width="117.46007mm"
   height="143.77983mm"
   viewBox="0 0 117.46007 143.77983"
   version="1.1"
   id="svg1"
   inkscape:version="1.4 (e7c3feb1, 2024-10-09)"
   sodipodi:docname="website_icon.svg"
   xmlns:inkscape="http://www.inkscape.org/namespaces/inkscape"
   xmlns:sodipodi="http://sodipodi.sourceforge.net/DTD/sodipodi-0.dtd"
   xmlns="http://www.w3.org/2000/svg"
   xmlns:svg="http://www.w3.org/2000/svg">
  <sodipodi:namedview
     id="namedview1"
     pagecolor="#ffffff"
     bordercolor="#000000"
     borderopacity="0.25"
     inkscape:showpageshadow="2"
     inkscape:pageopacity="0.0"
     inkscape:pagecheckerboard="0"
     inkscape:deskcolor="#d1d1d1"
     inkscape:document-units="mm"
     inkscape:zoom="0.45"
     inkscape:cx="191.11111"
     inkscape:cy="341.11111"
     inkscape:window-width="1368"
     inkscape:window-height="728"
     inkscape:window-x="0"
     inkscape:window-y="33"
     inkscape:window-maximized="0"
     inkscape:current-layer="g364" />
  <defs
     id="defs1">
    <clipPath
       id="id-c54b0869-fc31-4005-b4e9-b23e59eb4828">
      <path
         clip-rule="nonzero"
         d="M 1,6 H 7 V 7.765625 H 1 Z m 0,0"
         id="id-01114b4e-ba95-4ad8-bf68-d3d89b958d65" />
    </clipPath>
    <clipPath
       id="id-5e2e599e-3789-40e9-b425-a4fa8c685f9f">
      <path
         clip-rule="nonzero"
         d="M 2,7 H 7 V 7.765625 H 2 Z m 0,0"
         id="id-92ca9d8d-a65a-4b6d-b2c7-d9c4bcf56d60" />
    </clipPath>
    <clipPath
       id="id-1cc9fadf-dde3-4b68-9e37-b9a0b3126b95">
      <path
         clip-rule="nonzero"
         d="M 3,6 H 6 V 7.765625 H 3 Z m 0,0"
         id="id-bd882ddd-b6c6-4550-995a-0f51a5ba187f" />
    </clipPath>
  </defs>
  <g
     inkscape:label="Layer 1"
     inkscape:groupmode="layer"
     id="layer1"
     transform="translate(-47.977768,-14.346299)">
    <g
       id="g364"
       transform="matrix(7.0212856,0,0,7.0212856,-226.12177,-218.82461)">
      <g
         clip-path="url(#id-c54b0869-fc31-4005-b4e9-b23e59eb4828)"
         id="g350"
         transform="matrix(3.0500599,0,0,3.0500599,34.846004,30.001233)">
        <path
           fill-rule="nonzero"
           fill="#292f33"
           fill-opacity="1"
           d="M 6.574219,7.765625 V 7.101562 C 6.574219,6.476562 5.875,6.0625 5.25,6.0625 H 2.980469 c -0.625,0 -1.324219,0.414062 -1.324219,1.039062 v 0.664063 z m 0,0"
           id="path349" />
      </g>
      <g
         clip-path="url(#id-5e2e599e-3789-40e9-b425-a4fa8c685f9f)"
         id="g351"
         transform="matrix(3.0500599,0,0,3.0500599,34.846004,30.001233)">
        <path
           fill-rule="nonzero"
           fill="#66757f"
           fill-opacity="1"
           d="m 2.242188,7.261719 c 0.046874,0 0.078124,0.503906 0.078124,0.503906 H 2.140625 c 0,0 0.035156,-0.503906 0.101563,-0.503906 m 0.570312,0 c 0.046875,0 0.074219,0.503906 0.074219,0.503906 H 2.707031 c 0,0 0.035157,-0.503906 0.105469,-0.503906 m 2.617188,0 c -0.046876,0 -0.074219,0.503906 -0.074219,0.503906 h 0.179687 c 0,0 -0.039062,-0.503906 -0.105468,-0.503906 m 0.566406,0 c -0.046875,0 -0.074219,0.503906 -0.074219,0.503906 h 0.179687 c 0,0 -0.035156,-0.503906 -0.105468,-0.503906"
           id="path350" />
      </g>
      <g
         clip-path="url(#id-1cc9fadf-dde3-4b68-9e37-b9a0b3126b95)"
         id="g352"
         transform="matrix(3.0500599,0,0,3.0500599,34.846004,30.001233)"
         style="fill:#c019cc;fill-opacity:1">
        <path
           fill-rule="nonzero"
           fill="#9266cc"
           fill-opacity="1"
           d="M 4.117188,7.464844 C 4.886719,7.097656 5.179688,6.0625 5.179688,6.0625 h -2.125 c 0,0 0.289062,1.035156 1.0625,1.402344 z m 0,0"
           id="path351"
           style="fill:#c019cc;fill-opacity:1" />
      </g>
      <path
         fill-rule="nonzero"
         fill="#744eaa"
         fill-opacity="1"
         d="m 44.520413,48.492221 h 5.695032 c 0,0 -0.726771,2.025429 -2.847515,2.025429 -2.132659,0 -2.847517,-2.025429 -2.847517,-2.025429"
         id="path352"
         style="fill:#66757f;fill-opacity:1;stroke-width:3.05006" />
      <path
         fill-rule="nonzero"
         fill="#f7dece"
         fill-opacity="1"
         d="m 45.282928,48.504135 c 0,0.857829 1.251,1.143772 2.120746,1.143772 0.857829,0 2.10883,-0.285943 2.10883,-1.143772 v -1.846714 h -4.229576 z m 0,0"
         id="path354"
         style="stroke-width:3.05006" />
      <path
         fill-rule="nonzero"
         fill="#eec2ad"
         fill-opacity="1"
         d="m 45.282928,47.443763 c 0.583799,0.667201 1.322487,0.845916 2.108829,0.845916 0.798259,0 1.52503,-0.178715 2.120747,-0.845916 v -1.691832 h -4.229576 z m 0,0"
         id="path355"
         style="stroke-width:3.05006" />
      <path
         fill-rule="nonzero"
         fill="#f7dece"
         fill-opacity="1"
         d="m 42.637955,41.987017 c 0,-3.359833 2.120744,-6.088206 4.729975,-6.088206 2.609232,0 4.741889,2.728373 4.741889,6.088206 0,3.35983 -2.132657,5.933318 -4.741889,5.933318 -2.609231,0 -4.729975,-2.573488 -4.729975,-5.933318"
         id="path356"
         style="stroke-width:3.05006" />
      <path
         fill-rule="nonzero"
         fill="#df1f32"
         fill-opacity="1"
         d="m 47.36793,46.502533 c -0.929316,0 -1.405888,-0.464658 -1.465459,-0.512313 -0.154885,-0.154888 -0.154885,-0.405087 0,-0.559972 0.154885,-0.154888 0.405085,-0.154888 0.559973,0 0.01193,0.01192 0.30977,0.285943 0.905486,0.285943 0.595714,0 0.893573,-0.27403 0.905487,-0.285943 0.154885,-0.154888 0.405084,-0.142972 0.559973,0.01192 0.154885,0.154886 0.154885,0.393171 0,0.54806 -0.05957,0.04764 -0.536146,0.5123 -1.46546,0.5123"
         id="path357"
         style="fill:#c1694f;fill-opacity:1;stroke-width:3.05006" />
      <path
         fill-rule="nonzero"
         fill="#662113"
         fill-opacity="1"
         d="m 45.449726,43.238017 c -0.274026,0 -0.500399,-0.226372 -0.500399,-0.488485 v -0.488489 c 0,-0.262113 0.226373,-0.488485 0.500399,-0.488485 0.262116,0 0.476572,0.226372 0.476572,0.488485 v 0.488489 c 0,0.262113 -0.214456,0.488485 -0.476572,0.488485 m 3.895976,0 c -0.27403,0 -0.488485,-0.226372 -0.488485,-0.488485 v -0.488489 c 0,-0.262113 0.214455,-0.488485 0.488485,-0.488485 0.27403,0 0.488485,0.226372 0.488485,0.488485 v 0.488489 c 0,0.262113 -0.214455,0.488485 -0.488485,0.488485"
         id="path358"
         style="stroke-width:3.05006" />
      <path
         fill-rule="nonzero"
         fill="#c1694f"
         fill-opacity="1"
         d="m 47.880246,44.739217 h -0.976974 c -0.131058,0 -0.238286,-0.107228 -0.238286,-0.238286 v -0.09531 c 0,-0.131055 0.107228,-0.238286 0.238286,-0.238286 h 0.976974 c 0.131055,0 0.250199,0.107231 0.250199,0.238286 v 0.09531 c 0,0.131058 -0.119144,0.238286 -0.250199,0.238286"
         id="path359"
         style="stroke-width:3.05006" />
      <path
         fill-rule="nonzero"
         fill="#f7dece"
         fill-opacity="1"
         d="m 43.614926,42.118072 c 0,0.834002 -0.417001,1.501203 -0.94123,1.501203 -0.524229,0 -0.94123,-0.667201 -0.94123,-1.501203 0,-0.845916 0.417001,-1.52503 0.94123,-1.52503 0.524229,0 0.94123,0.679114 0.94123,1.52503 m 9.45995,0 c 0,0.834002 -0.428912,1.501203 -0.953144,1.501203 -0.524226,0 -0.941227,-0.667201 -0.941227,-1.501203 0,-0.845916 0.417001,-1.52503 0.941227,-1.52503 0.524232,0 0.953144,0.679114 0.953144,1.52503"
         id="path361"
         style="stroke-width:3.05006" />
      <path
         fill-rule="nonzero"
         fill="#60352a"
         fill-opacity="1"
         d="m 47.460721,35.685338 c 3.227678,0 5.249417,2.660171 5.249417,4.646447 0,1.998073 -0.555674,2.849334 -0.804022,1.998073 -0.437529,-1.489713 -1.016757,-1.489713 -1.016757,-1.489713 0,0 -2.222735,0.874873 -3.026701,0.08346 0,0 1.205939,2.388249 -1.217811,0 0,0 0.401918,1.596172 -2.02172,-0.390235 0,0 -1.20594,-0.201051 -1.607858,1.79704 -0.118702,0.543805 -0.815706,0 -0.815706,-1.998073 0,-1.986275 1.619728,-4.646447 5.261251,-4.646447"
         id="path375-5-7"
         style="stroke-width:3.02668" />
      <path
         fill-rule="nonzero"
         fill="#292f33"
         fill-opacity="1"
         d="m 55.529223,34.945667 -8.065978,-1.727572 c -0.04766,-0.01193 -0.0834,-0.01193 -0.119145,0 l -8.077891,1.727572 c -0.131058,0.02383 -0.226373,0.142971 -0.226373,0.274029 -0.01191,0.131055 0.07149,0.2502 0.202543,0.285944 l 2.859431,0.810169 c -0.119142,0.345516 -0.178715,0.750601 -0.178715,1.215259 0,1.322488 1.894373,2.025429 5.480579,2.025429 3.574286,0 5.480573,-0.702941 5.480573,-2.025429 0,-0.464658 -0.07148,-0.869743 -0.178712,-1.215259 L 55.55305,35.50564 c 0.131058,-0.03574 0.214459,-0.154889 0.214459,-0.285944 -0.01191,-0.131058 -0.107228,-0.250202 -0.238286,-0.274029 z m 0,0"
         id="path362"
         style="stroke-width:3.05006" />
      <path
         fill-rule="nonzero"
         fill="#66757f"
         fill-opacity="1"
         d="m 55.755595,35.148209 c -0.04766,-0.154885 -0.202545,-0.238286 -0.35743,-0.190629 l -7.994491,2.275632 -8.006407,-2.275632 c -0.142975,-0.04766 -0.309773,0.03574 -0.345517,0.190629 -0.04766,0.154885 0.03574,0.30977 0.190629,0.357431 l 8.077894,2.311371 c 0.02382,0 0.04766,0.01193 0.0834,0.01193 0.02382,0 0.04765,-0.01193 0.07148,-0.01193 L 55.55305,35.50564 c 0.154888,-0.04766 0.238289,-0.202546 0.202545,-0.357431 z m 0,0"
         id="path363"
         style="stroke-width:3.05006" />
      <path
         fill-rule="nonzero"
         fill="#ffcc4d"
         fill-opacity="1"
         d="m 47.379844,34.933753 -6.922206,0.5838 c -0.02382,0 -0.262116,0.03574 -0.262116,0.285943 v 3.514718 c -0.178715,0.107228 -0.297856,0.428912 -0.297856,1.393972 0,1.429716 0.262116,2.585402 0.583799,2.585402 0.309774,0 0.571887,-1.155686 0.571887,-2.585402 0,-0.96506 -0.119142,-1.286744 -0.285943,-1.393972 v -3.252605 l 6.660092,-0.548056 c 0.154885,-0.01191 0.27403,-0.154888 0.262116,-0.309773 -0.01192,-0.166799 -0.154888,-0.285943 -0.309773,-0.274027 z m 0,0"
         id="path364"
         style="fill:#c019cc;fill-opacity:1;stroke-width:3.05006" />
    </g>
  </g>
</svg>
